# xmcd CD database file
#
# Track frame offsets:
#	150
#	13600
#	23237
#	37727
#	57752
#	71432
#	82307
#	91920
#	103152
#	116437
#	131512
#	142135
#	154660
#	165000
#	171015
#	181422
#	199762
#	209337
#	220590
#	240000
#
# Disc length: 3363 seconds
#
# Revision: 0
# Processed by: cddbd v1.5.2PL0 Copyright (c) Steve Scherf et al.
# Submitted via: CDex 1.70beta3
#
DISCID=000d2114
DTITLE=Various Artist - Music For Dancefloors
DYEAR=2000
DGENRE=Jazz
TTITLE0=That's What Friends Are For - Madeline Bell
TTITLE1=Unlimited Love - Alan Parker
TTITLE2=Funky Express - Duncan Lamont
TTITLE3=Assault Course - Johnny Pearson
TTITLE4=Samba Street - Barry Morgan And Ray Cooper
TTITLE5=Second Cut - James Clarke
TTITLE6=Swamp Fever - John Cameron
TTITLE7=Reggae Train - William Farley And Dennis Bovell
TTITLE8=Incidental Backcloth No.3 - Keith Mansfield
TTITLE9=Cross Talk - Francis Coppieters
TTITLE10=In Advance - Pierre Lavin Pop Band
TTITLE11=Senior Thump - Alan Hawkshaw
TTITLE12=Expo In Tokyo - Alan Moorhouse
TTITLE13=Witchdoctor - Nascimbene
TTITLE14=Jungle Baby - Juan Erlando And His Latin Band
TTITLE15=Morning 1 - Morning 2 - Klaus Weiss
TTITLE16=Freeway To Rio - Les Baxter
TTITLE17=Brazil Express - Juan Erlando And His Latin Band
TTITLE18=Piano In Transit - Francis Coppieters
TTITLE19=Crash Course - Keith Mansfield
EXTD=YEAR: 2000
EXTT0=
EXTT1=
EXTT2=
EXTT3=
EXTT4=
EXTT5=
EXTT6=
EXTT7=
EXTT8=
EXTT9=
EXTT10=
EXTT11=
EXTT12=
EXTT13=
EXTT14=
EXTT15=
EXTT16=
EXTT17=
EXTT18=
EXTT19=
PLAYORDER=
